<svg width="1180" height="1180" viewBox="0 0 1180 1180" fill="none" xmlns="http://www.w3.org/2000/svg">
<path fill-rule="evenodd" clip-rule="evenodd" d="M560 100.122C461.959 106.171 371.907 139.334 293.5 198.262C241.153 237.606 195.52 289.398 163.125 346.236C129.248 405.675 109.164 468.323 101.329 539C98.7341 562.413 98.7341 617.587 101.329 641C111.068 728.856 140.267 805.971 190.308 876C251.019 960.96 339.408 1025.46 438.948 1057.43C493.134 1074.83 556.706 1083.17 612.071 1080.13C702.744 1075.16 780.432 1050.64 854.5 1003.62C939.828 949.453 1008.9 865.775 1045.7 772C1062.33 729.609 1072.81 686.673 1078.03 639.5C1079.81 623.504 1080.42 573.37 1079.07 554.848C1073.06 472.153 1047.27 393.921 1003.63 326C958.858 256.304 902.957 203.31 830.786 162.144C751.118 116.7 653.541 94.3513 560 100.122ZM565 196.689C502.305 201.413 446.844 218.187 394.5 248.255C361.331 267.309 334.706 288.148 306.5 317.13C246.881 378.39 210.249 454.549 198.339 542C195.746 561.036 195.738 619.524 198.325 638C210.702 726.391 246.203 800.368 306 862.372C352.959 911.064 406.294 944.412 470.812 965.421C574.174 999.078 692.698 986.114 786.238 930.921C819.902 911.057 843.098 892.879 870.526 864.867C931.636 802.455 968.606 727.014 980.05 641.375C990.099 566.177 977.972 489.931 944.848 420.039C916.119 359.419 864.492 300.124 807.5 262.289C741.094 218.204 665.123 195.405 587.196 196.175C577.463 196.271 567.475 196.502 565 196.689ZM565.5 296.558C501.02 304.434 444.678 344.088 414.702 402.692C402.576 426.399 394 460.173 394 484.224V491H442.349H490.698L491.308 481.715C492.179 468.458 497.297 453.279 504.861 441.522C527.521 406.301 568.9 388.032 607.979 395.996C675.447 409.745 710.194 484.61 673.93 538.094C667.12 548.138 654.848 560.044 635 575.865C604.437 600.226 592.865 610.216 583.857 620.015C563.856 641.776 550.543 667.991 545.067 696.403C542.933 707.476 541 724.443 541 732.106V737H589.371H637.742L638.461 727.808C639.328 716.729 641.779 706.736 646.422 695.346C654.768 674.876 669.57 656.841 700.5 629.458C743.411 591.468 756.002 577.969 767.869 557.227C781.173 533.974 785.626 514.388 784.711 483.155C783.866 454.319 778.524 432.412 765.934 406.146C749.398 371.646 721.212 340.869 688.694 321.805C680.122 316.78 661.079 308.15 652 305.177C624.646 296.218 593.606 293.125 565.5 296.558ZM541 835.5V885H589.5H638V835.5V786H589.5H541V835.5Z" fill="#5F6367"/>
</svg>
