<svg width="1180" height="1180" viewBox="0 0 1180 1180" fill="none" xmlns="http://www.w3.org/2000/svg">
<path fill-rule="evenodd" clip-rule="evenodd" d="M436.579 149.068C373.775 155.526 315.031 179.577 265.988 218.911C245.958 234.976 221.122 261.477 206.748 282.122C176.767 325.183 158.64 370.578 150.891 422C148.862 435.472 148.552 441.295 148.528 466.5C148.492 504.951 150.892 523.075 160.413 556.247C185.752 644.533 250.771 719.232 335.504 757.403C356.528 766.874 388.092 776.792 409.181 780.553C491.558 795.242 570.452 779.072 642.001 732.836L652.501 726.05L793.003 866.525L933.504 1007L970.253 970.252L1007 933.503L866.435 792.934L725.868 652.364L732.786 641.932C762.308 597.414 780.909 543.708 785.062 491C788.838 443.083 779.86 387.588 761.292 344.075C739.462 292.916 707.595 250.606 665.77 217.251C619.9 180.669 569.257 158.901 510.232 150.396C497.443 148.553 449.921 147.696 436.579 149.068ZM446.501 247.615C427.065 250.406 420.851 251.547 411.001 254.131C349.095 270.373 295.207 315.471 267.548 374.184C258.351 393.706 251.365 418.209 248.435 441.219C246.24 458.453 246.93 489.266 249.867 505.155C258.63 552.572 278.312 590.235 312.001 624.051C331.83 643.954 351.852 658.067 375.501 668.809C434.597 695.653 501.48 695.651 560.501 668.801C595.735 652.773 629.773 623.738 651.729 590.985C698.913 520.593 701.504 427.782 658.311 355.198C634.066 314.456 596.632 282.013 552.427 263.431C526.098 252.363 503.512 247.911 471.501 247.481C459.401 247.318 448.151 247.378 446.501 247.615Z" fill="#5F6367"/>
</svg>
